{
  "accessors": [
    {
      "bufferView": 1,
      "componentType": 5126,
      "count": 65532,
      "max": [
        0.919333815574646,
        0.8110619783401489,
        0.3888118863105774
      ],
      "min": [
        -0.919333815574646,
        -2.894190549850464,
        -0.2565637528896332
      ],
      "type": "VEC3"
    },
    {
      "bufferView": 1,
      "byteOffset": 786384,
      "componentType": 5126,
      "count": 65532,
      "max": [
        0.9999908804893494,
        0.9999457597732544,
        0.9999931454658508
      ],
      "min": [
        -0.9999908804893494,
        -0.9999971985816956,
        -0.9999604225158691
      ],
      "type": "VEC3"
    },
    {
      "bufferView": 0,
      "componentType": 5125,
      "count": 381276,
      "type": "SCALAR"
    },
    {
      "bufferView": 1,
      "byteOffset": 1572768,
      "componentType": 5126,
      "count": 65532,
      "max": [
        0.9604108929634094,
        0.9700433015823364,
        0.3810282051563263
      ],
      "min": [
        -0.9536803364753723,
        -2.901137351989746,
        -0.2994038760662079
      ],
      "type": "VEC3"
    },
    {
      "bufferView": 1,
      "byteOffset": 2359152,
      "componentType": 5126,
      "count": 65532,
      "max": [
        1.0,
        0.9997004270553589,
        0.999982476234436
      ],
      "min": [
        -1.0,
        -0.9999811053276062,
        -0.9999814629554749
      ],
      "type": "VEC3"
    },
    {
      "bufferView": 0,
      "byteOffset": 1525104,
      "componentType": 5125,
      "count": 301992,
      "type": "SCALAR"
    },
    {
      "bufferView": 1,
      "byteOffset": 3145536,
      "componentType": 5126,
      "count": 65532,
      "max": [
        0.9614368677139282,
        1.00045907497406,
        0.3877258002758026
      ],
      "min": [
        -0.9618425369262695,
        -2.905329465866089,
        -0.2994038760662079
      ],
      "type": "VEC3"
    },
    {
      "bufferView": 1,
      "byteOffset": 3931920,
      "componentType": 5126,
      "count": 65532,
      "max": [
        0.9999817609786987,
        0.9999917149543762,
        0.9999950528144836
      ],
      "min": [
        -0.9999816417694092,
        -0.9999950528144836,
        -0.9999954700469971
      ],
      "type": "VEC3"
    },
    {
      "bufferView": 0,
      "byteOffset": 2733072,
      "componentType": 5125,
      "count": 314790,
      "type": "SCALAR"
    },
    {
      "bufferView": 1,
      "byteOffset": 4718304,
      "componentType": 5126,
      "count": 65532,
      "max": [
        0.9618403911590576,
        0.9975741505622864,
        0.38777562975883484
      ],
      "min": [
        -0.9618425369262695,
        -2.902261734008789,
        -0.2992844879627228
      ],
      "type": "VEC3"
    },
    {
      "bufferView": 1,
      "byteOffset": 5504688,
      "componentType": 5126,
      "count": 65532,
      "max": [
        0.9999987483024597,
        0.9986574053764343,
        0.9999883770942688
      ],
      "min": [
        -0.9999971389770508,
        -0.9999950528144836,
        -0.9999954700469971
      ],
      "type": "VEC3"
    },
    {
      "bufferView": 0,
      "byteOffset": 3992232,
      "componentType": 5125,
      "count": 315414,
      "type": "SCALAR"
    },
    {
      "bufferView": 1,
      "byteOffset": 6291072,
      "componentType": 5126,
      "count": 65532,
      "max": [
        0.9592812657356262,
        1.00045907497406,
        0.3878194987773895
      ],
      "min": [
        -0.9603471159934998,
        -2.904496431350708,
        -0.2994038760662079
      ],
      "type": "VEC3"
    },
    {
      "bufferView": 1,
      "byteOffset": 7077456,
      "componentType": 5126,
      "count": 65532,
      "max": [
        0.9999987483024597,
        0.9999917149543762,
        0.9999950528144836
      ],
      "min": [
        -0.9999843239784241,
        -0.9999853372573853,
        -0.9999769330024719
      ],
      "type": "VEC3"
    },
    {
      "bufferView": 0,
      "byteOffset": 5253888,
      "componentType": 5125,
      "count": 286935,
      "type": "SCALAR"
    },
    {
      "bufferView": 1,
      "byteOffset": 7863840,
      "componentType": 5126,
      "count": 65532,
      "max": [
        0.9601097702980042,
        1.0414055585861206,
        0.3874949812889099
      ],
      "min": [
        -0.9604160785675049,
        -2.905329465866089,
        -0.4325638711452484
      ],
      "type": "VEC3"
    },
    {
      "bufferView": 1,
      "byteOffset": 8650224,
      "componentType": 5126,
      "count": 65532,
      "max": [
        0.9999999403953552,
        0.9998809099197388,
        0.999950110912323
      ],
      "min": [
        -0.9999971389770508,
        -0.999987781047821,
        -0.9999814629554749
      ],
      "type": "VEC3"
    },
    {
      "bufferView": 0,
      "byteOffset": 6401628,
      "componentType": 5125,
      "count": 252438,
      "type": "SCALAR"
    },
    {
      "bufferView": 1,
      "byteOffset": 9436608,
      "componentType": 5126,
      "count": 65532,
      "max": [
        0.07887785136699677,
        1.0428279638290405,
        0.25003477931022644
      ],
      "min": [
        -0.09708981961011887,
        0.3837776184082031,
        -0.41130590438842773
      ],
      "type": "VEC3"
    },
    {
      "bufferView": 1,
      "byteOffset": 10222992,
      "componentType": 5126,
      "count": 65532,
      "max": [
        0.99998939037323,
        0.9996033906936646,
        0.9999091625213623
      ],
      "min": [
        -0.999998927116394,
        -0.9999932646751404,
        -0.9964575171470642
      ],
      "type": "VEC3"
    },
    {
      "bufferView": 0,
      "byteOffset": 7411380,
      "componentType": 5125,
      "count": 367905,
      "type": "SCALAR"
    },
    {
      "bufferView": 1,
      "byteOffset": 11009376,
      "componentType": 5126,
      "count": 65532,
      "max": [
        0.15450504422187805,
        1.0433335304260254,
        0.24762509763240814
      ],
      "min": [
        -0.12642516195774078,
        0.4829341769218445,
        -0.3852106034755707
      ],
      "type": "VEC3"
    },
    {
      "bufferView": 1,
      "byteOffset": 11795760,
      "componentType": 5126,
      "count": 65532,
      "max": [
        0.9999296069145203,
        0.9998688101768494,
        0.9999196529388428
      ],
      "min": [
        -0.9999794363975525,
        -0.9999009966850281,
        -0.9996662735939026
      ],
      "type": "VEC3"
    },
    {
      "bufferView": 0,
      "byteOffset": 8883000,
      "componentType": 5125,
      "count": 363351,
      "type": "SCALAR"
    },
    {
      "bufferView": 1,
      "byteOffset": 12582144,
      "componentType": 5126,
      "count": 29898,
      "max": [
        0.9597582221031189,
        1.0550230741500854,
        0.3788263499736786
      ],
      "min": [
        -0.9594548940658569,
        -2.9028334617614746,
        -0.4325638711452484
      ],
      "type": "VEC3"
    },
    {
      "bufferView": 1,
      "byteOffset": 12940920,
      "componentType": 5126,
      "count": 29898,
      "max": [
        1.0,
        0.9999473094940186,
        0.9999399781227112
      ],
      "min": [
        -0.9999704957008362,
        -0.9999967813491821,
        -0.9999048709869385
      ],
      "type": "VEC3"
    },
    {
      "bufferView": 0,
      "byteOffset": 10336404,
      "componentType": 5125,
      "count": 135666,
      "type": "SCALAR"
    }
  ],
  "asset": {
    "extras": {
      "author": "mezuna (https://sketchfab.com/mezuna)",
      "license": "CC-BY-4.0 (http://creativecommons.org/licenses/by/4.0/)",
      "source": "https://sketchfab.com/3d-models/female-anatomy-women-highpoly-add580d1877b4b6fa5e4ea90edfabc35",
      "title": "Female anatomy | Women Highpoly"
    },
    "generator": "Sketchfab-14.86.0",
    "version": "2.0"
  },
  "bufferViews": [
    {
      "buffer": 0,
      "byteLength": 10879068,
      "name": "floatBufferViews",
      "target": 34963
    },
    {
      "buffer": 0,
      "byteLength": 13299696,
      "byteOffset": 10879068,
      "byteStride": 12,
      "name": "floatBufferViews",
      "target": 34962
    }
  ],
  "buffers": [
    {
      "byteLength": 24178764,
      "uri": "scene.bin"
    }
  ],
  "extensionsUsed": [
    "KHR_materials_specular"
  ],
  "materials": [
    {
      "doubleSided": true,
      "extensions": {
        "KHR_materials_specular": {
          "specularColorFactor": [
            1.0,
            1.0,
            1.0
          ],
          "specularFactor": 0.5409540295741854
        }
      },
      "name": "Merged_scetc1",
      "pbrMetallicRoughness": {
        "baseColorFactor": [
          0.783914465286133,
          0.783914465286133,
          0.783914465286133,
          1.0
        ],
        "metallicFactor": 0.0
      }
    }
  ],
  "meshes": [
    {
      "name": "Merged_scetc1_Merged_scetc1_0",
      "primitives": [
        {
          "attributes": {
            "NORMAL": 1,
            "POSITION": 0
          },
          "indices": 2,
          "material": 0,
          "mode": 4
        }
      ]
    },
    {
      "name": "Merged_scetc1_Merged_scetc1_0",
      "primitives": [
        {
          "attributes": {
            "NORMAL": 4,
            "POSITION": 3
          },
          "indices": 5,
          "material": 0,
          "mode": 4
        }
      ]
    },
    {
      "name": "Merged_scetc1_Merged_scetc1_0",
      "primitives": [
        {
          "attributes": {
            "NORMAL": 7,
            "POSITION": 6
          },
          "indices": 8,
          "material": 0,
          "mode": 4
        }
      ]
    },
    {
      "name": "Merged_scetc1_Merged_scetc1_0",
      "primitives": [
        {
          "attributes": {
            "NORMAL": 10,
            "POSITION": 9
          },
          "indices": 11,
          "material": 0,
          "mode": 4
        }
      ]
    },
    {
      "name": "Merged_scetc1_Merged_scetc1_0",
      "primitives": [
        {
          "attributes": {
            "NORMAL": 13,
            "POSITION": 12
          },
          "indices": 14,
          "material": 0,
          "mode": 4
        }
      ]
    },
    {
      "name": "Merged_scetc1_Merged_scetc1_0",
      "primitives": [
        {
          "attributes": {
            "NORMAL": 16,
            "POSITION": 15
          },
          "indices": 17,
          "material": 0,
          "mode": 4
        }
      ]
    },
    {
      "name": "Merged_scetc1_Merged_scetc1_0",
      "primitives": [
        {
          "attributes": {
            "NORMAL": 19,
            "POSITION": 18
          },
          "indices": 20,
          "material": 0,
          "mode": 4
        }
      ]
    },
    {
      "name": "Merged_scetc1_Merged_scetc1_0",
      "primitives": [
        {
          "attributes": {
            "NORMAL": 22,
            "POSITION": 21
          },
          "indices": 23,
          "material": 0,
          "mode": 4
        }
      ]
    },
    {
      "name": "Merged_scetc1_Merged_scetc1_0",
      "primitives": [
        {
          "attributes": {
            "NORMAL": 25,
            "POSITION": 24
          },
          "indices": 26,
          "material": 0,
          "mode": 4
        }
      ]
    }
  ],
  "nodes": [
    {
      "children": [
        1
      ],
      "matrix": [
        1.0,
        0.0,
        0.0,
        0.0,
        0.0,
        2.220446049250313e-16,
        -1.0,
        0.0,
        0.0,
        1.0,
        2.220446049250313e-16,
        0.0,
        0.0,
        0.0,
        0.0,
        1.0
      ],
      "name": "Sketchfab_model"
    },
    {
      "children": [
        2
      ],
      "matrix": [
        0.009999999776482582,
        0.0,
        0.0,
        0.0,
        0.0,
        0.0,
        0.009999999776482582,
        0.0,
        0.0,
        -0.009999999776482582,
        0.0,
        0.0,
        0.0,
        0.0,
        0.0,
        1.0
      ],
      "name": "b68cc6bfaaa84be0ae804cec75be4812.fbx"
    },
    {
      "children": [
        3
      ],
      "name": "RootNode"
    },
    {
      "children": [
        4,
        5,
        6,
        7,
        8,
        9,
        10,
        11,
        12
      ],
      "name": "Merged_scetc1"
    },
    {
      "mesh": 0,
      "name": "Merged_scetc1_Merged_scetc1_0"
    },
    {
      "mesh": 1,
      "name": "Merged_scetc1_Merged_scetc1_0"
    },
    {
      "mesh": 2,
      "name": "Merged_scetc1_Merged_scetc1_0"
    },
    {
      "mesh": 3,
      "name": "Merged_scetc1_Merged_scetc1_0"
    },
    {
      "mesh": 4,
      "name": "Merged_scetc1_Merged_scetc1_0"
    },
    {
      "mesh": 5,
      "name": "Merged_scetc1_Merged_scetc1_0"
    },
    {
      "mesh": 6,
      "name": "Merged_scetc1_Merged_scetc1_0"
    },
    {
      "mesh": 7,
      "name": "Merged_scetc1_Merged_scetc1_0"
    },
    {
      "mesh": 8,
      "name": "Merged_scetc1_Merged_scetc1_0"
    }
  ],
  "scene": 0,
  "scenes": [
    {
      "name": "Sketchfab_Scene",
      "nodes": [
        0
      ]
    }
  ]
}
